<svg width="36" height="36" viewBox="0 0 36 36" fill="none" xmlns="http://www.w3.org/2000/svg">
<circle cx="18" cy="18" r="17.5" fill="#C4C4C4" stroke="#444D55"/>
<path d="M23.5781 13.9688C23.1898 13.9688 22.875 13.654 22.875 13.2656V10.5469C22.875 10.1585 23.1898 9.84375 23.5781 9.84375C23.9665 9.84375 24.2812 10.1585 24.2812 10.5469V13.2656C24.2812 13.654 23.9665 13.9688 23.5781 13.9688Z" fill="#444D55"/>
<path d="M29.2969 26.1562H20.7656C20.3773 26.1562 20.0625 25.8415 20.0625 25.4531V13.2656C20.0625 12.8773 20.3773 12.5625 20.7656 12.5625H24.2812L30 19.5938V25.4531C30 25.8415 29.6852 26.1562 29.2969 26.1562Z" fill="#325AD0"/>
<path d="M20.7656 26.1562H6.70312C6.31476 26.1562 6 25.8415 6 25.4531V9.98438C6 9.59601 6.31476 9.28125 6.70312 9.28125H20.7656C21.154 9.28125 21.4688 9.59601 21.4688 9.98438V25.4531C21.4688 25.8415 21.154 26.1562 20.7656 26.1562Z" fill="#E6F0F5"/>
<path d="M20.7656 9.28125H18V26.1562H21.4688V9.98438C21.4688 9.59601 21.154 9.28125 20.7656 9.28125Z" fill="#C8DCE6"/>
<path d="M18.6562 20.7656H8.8125V9.98438H18.6562V20.7656Z" fill="#FFE137"/>
<path d="M18.6562 20.7656H18V9.98438H18.6562V20.7656Z" fill="#FAC30F"/>
<path d="M30 19.5938H23.5781C23.1898 19.5938 22.875 19.279 22.875 18.8906V12.5625H25.0781C27.7963 12.5625 30 14.7662 30 17.4844V19.5938Z" fill="#37C8D2"/>
<path d="M24.6094 28.0312C23.1877 28.0312 22.0312 26.8748 22.0312 25.4531C22.0312 24.0315 23.1877 22.875 24.6094 22.875C26.031 22.875 27.1875 24.0315 27.1875 25.4531C27.1875 26.8748 26.031 28.0312 24.6094 28.0312Z" fill="#444D55"/>
<path d="M26.8594 12.1875C26.7947 12.1875 26.7297 12.1787 26.6662 12.1604L23.3849 11.2229C23.083 11.1366 22.875 10.8609 22.875 10.5469V9.60936C22.875 9.29552 23.083 9.01958 23.3849 8.93334L26.6662 7.99583C26.8782 7.93523 27.1066 7.97771 27.2827 8.11064C27.4589 8.24339 27.5625 8.45122 27.5625 8.67186V11.4844C27.5625 11.705 27.4589 11.9128 27.2827 12.0458C27.1593 12.1388 27.0104 12.1875 26.8594 12.1875Z" fill="#FAC30F"/>
<path d="M24.9844 21.9375H23.5781C23.1898 21.9375 22.875 21.6227 22.875 21.2344C22.875 20.846 23.1898 20.5312 23.5781 20.5312H24.9844C25.3727 20.5312 25.6875 20.846 25.6875 21.2344C25.6875 21.6227 25.3727 21.9375 24.9844 21.9375Z" fill="#FAC30F"/>
<path d="M11.3906 28.0312C9.96899 28.0312 8.8125 26.8748 8.8125 25.4531C8.8125 24.0315 9.96899 22.875 11.3906 22.875C12.8123 22.875 13.9688 24.0315 13.9688 25.4531C13.9688 26.8748 12.8123 28.0312 11.3906 28.0312Z" fill="#545C64"/>
<path d="M20.7656 9.28125H6.70312C6.31476 9.28125 6 9.59601 6 9.98438V13.3594C6 14.2137 6.6925 14.9062 7.54688 14.9062C8.40125 14.9062 9.09375 14.2137 9.09375 13.3594C9.09375 14.2137 9.78625 14.9062 10.6406 14.9062C11.495 14.9062 12.1875 14.2137 12.1875 13.3594C12.1875 14.2137 12.88 14.9062 13.7344 14.9062C14.5887 14.9062 15.2812 14.2137 15.2812 13.3594C15.2812 14.2137 15.9738 14.9062 16.8281 14.9062C17.6825 14.9062 18.375 14.2137 18.375 13.3594C18.375 14.2137 19.0675 14.9062 19.9219 14.9062C20.7762 14.9062 21.4688 14.2137 21.4688 13.3594V9.98438C21.4688 9.59601 21.154 9.28125 20.7656 9.28125Z" fill="#FF3746"/>
<path d="M24.6094 26.625C23.9632 26.625 23.4375 26.0993 23.4375 25.4531C23.4375 24.8069 23.9632 24.2812 24.6094 24.2812C25.2556 24.2812 25.7812 24.8069 25.7812 25.4531C25.7812 26.0993 25.2556 26.625 24.6094 26.625Z" fill="#C8DCE6"/>
<path d="M11.3906 26.625C10.7444 26.625 10.2188 26.0993 10.2188 25.4531C10.2188 24.8069 10.7444 24.2812 11.3906 24.2812C12.0368 24.2812 12.5625 24.8069 12.5625 25.4531C12.5625 26.0993 12.0368 26.625 11.3906 26.625Z" fill="#E6F0F5"/>
<path d="M20.7656 9.28125H18V14.3685C18.2335 14.0975 18.375 13.7452 18.375 13.3594C18.375 14.2137 19.0675 14.9062 19.9219 14.9062C20.7762 14.9062 21.4688 14.2137 21.4688 13.3594V9.98438C21.4688 9.59601 21.154 9.28125 20.7656 9.28125Z" fill="#DC1E28"/>
<path d="M18.6562 21.4688H8.8125C8.42413 21.4688 8.10938 21.154 8.10938 20.7656C8.10938 20.3773 8.42413 20.0625 8.8125 20.0625H18.6562C19.0446 20.0625 19.3594 20.3773 19.3594 20.7656C19.3594 21.154 19.0446 21.4688 18.6562 21.4688Z" fill="#B0B5C0"/>
<path d="M18.6562 20.0625H18V21.4688H18.6562C19.0446 21.4688 19.3594 21.154 19.3594 20.7656C19.3594 20.3773 19.0446 20.0625 18.6562 20.0625Z" fill="#959CAB"/>
</svg>
