<svg height="24px" viewBox="0 -42 512 512" width="24px" xmlns="http://www.w3.org/2000/svg"><path d="m375 128c-8.285156 0-15-6.714844-15-15v-58c0-8.285156 6.714844-15 15-15s15 6.714844 15 15v58c0 8.285156-6.714844 15-15 15zm0 0" fill="#444d55"/><path d="m497 388h-182c-8.285156 0-15-6.714844-15-15v-260c0-8.285156 6.714844-15 15-15h75l122 150v125c0 8.285156-6.714844 15-15 15zm0 0" fill="#325ad0"/><path d="m315 388h-300c-8.285156 0-15-6.714844-15-15v-330c0-8.285156 6.714844-15 15-15h300c8.285156 0 15 6.714844 15 15v330c0 8.285156-6.714844 15-15 15zm0 0" fill="#e6f0f5"/><path d="m315 28h-59v360h74v-345c0-8.285156-6.714844-15-15-15zm0 0" fill="#c8dce6"/><path d="m270 273h-210v-230h210zm0 0" fill="#ffe137"/><path d="m270 273h-14v-230h14zm0 0" fill="#fac30f"/><path d="m512 248h-137c-8.285156 0-15-6.714844-15-15v-135h47c57.988281 0 105 47.011719 105 105zm0 0" fill="#37c8d2"/><path d="m397 428c-30.328125 0-55-24.671875-55-55s24.671875-55 55-55 55 24.671875 55 55-24.671875 55-55 55zm0 0" fill="#444d55"/><path d="m445 90c-1.378906 0-2.765625-.1875-4.121094-.578125l-70-20c-6.441406-1.839844-10.878906-7.722656-10.878906-14.421875v-20c0-6.695312 4.4375-12.582031 10.878906-14.421875l70-20c4.523438-1.292969 9.394532-.386719 13.152344 2.449219 3.757812 2.832031 5.96875 7.265625 5.96875 11.972656v60c0 4.707031-2.210938 9.140625-5.96875 11.976562-2.632812 1.984376-5.808594 3.023438-9.03125 3.023438zm0 0" fill="#fac30f"/><path d="m405 298h-30c-8.285156 0-15-6.714844-15-15s6.714844-15 15-15h30c8.285156 0 15 6.714844 15 15s-6.714844 15-15 15zm0 0" fill="#fac30f"/><path d="m115 428c-30.328125 0-55-24.671875-55-55s24.671875-55 55-55 55 24.671875 55 55-24.671875 55-55 55zm0 0" fill="#545c64"/><path d="m315 28h-300c-8.285156 0-15 6.714844-15 15v72c0 18.226562 14.773438 33 33 33s33-14.773438 33-33c0 18.226562 14.773438 33 33 33s33-14.773438 33-33c0 18.226562 14.773438 33 33 33s33-14.773438 33-33c0 18.226562 14.773438 33 33 33s33-14.773438 33-33c0 18.226562 14.773438 33 33 33s33-14.773438 33-33v-72c0-8.285156-6.714844-15-15-15zm0 0" fill="#ff3746"/><path d="m397 398c-13.785156 0-25-11.214844-25-25s11.214844-25 25-25 25 11.214844 25 25-11.214844 25-25 25zm0 0" fill="#c8dce6"/><path d="m115 398c-13.785156 0-25-11.214844-25-25s11.214844-25 25-25 25 11.214844 25 25-11.214844 25-25 25zm0 0" fill="#e6f0f5"/><path d="m315 28h-59v108.527344c4.980469-5.78125 8-13.296875 8-21.527344 0 18.226562 14.773438 33 33 33s33-14.773438 33-33v-72c0-8.285156-6.714844-15-15-15zm0 0" fill="#dc1e28"/><path d="m270 288h-210c-8.285156 0-15-6.714844-15-15s6.714844-15 15-15h210c8.285156 0 15 6.714844 15 15s-6.714844 15-15 15zm0 0" fill="#b0b5c0"/><path d="m270 258h-14v30h14c8.285156 0 15-6.714844 15-15s-6.714844-15-15-15zm0 0" fill="#959cab"/></svg>